<?xml version="1.0" standalone="no"?>
<!DOCTYPE svg PUBLIC "-//W3C//DTD SVG 20010904//EN"
 "http://www.w3.org/TR/2001/REC-SVG-20010904/DTD/svg10.dtd">
<svg version="1.0" xmlns="http://www.w3.org/2000/svg"
 width="512.000000pt" height="512.000000pt" viewBox="0 0 512.000000 512.000000"
 preserveAspectRatio="xMidYMid meet">
<metadata>
Created by potrace 1.14, written by Peter Selinger 2001-2017
</metadata>
<g transform="translate(0.000000,512.000000) scale(0.100000,-0.100000)"
fill="#000000" stroke="none">
<path d="M2436 5104 c-219 -54 -442 -276 -606 -604 -46 -91 -117 -263 -148
-355 -5 -18 -15 -29 -23 -26 -21 5 -235 40 -298 48 -73 10 -412 10 -476 1
-217 -33 -350 -92 -465 -207 -134 -136 -183 -296 -155 -506 30 -217 182 -510
404 -780 50 -60 91 -113 91 -117 0 -4 -23 -33 -51 -65 -77 -88 -180 -227 -247
-336 -34 -53 -59 -97 -56 -97 3 0 -6 -19 -20 -42 -73 -125 -128 -327 -127
-468 1 -164 48 -278 161 -391 114 -114 220 -162 450 -204 74 -13 434 -14 488
-1 13 3 49 8 81 11 31 3 96 14 143 24 l87 18 17 -46 c134 -361 253 -570 424
-742 142 -143 267 -207 420 -214 116 -5 169 6 279 62 249 125 470 448 636 930
3 9 13 9 37 2 18 -5 53 -12 78 -15 25 -3 52 -7 60 -10 8 -2 36 -6 62 -9 25 -3
57 -8 69 -11 42 -10 412 -13 459 -4 25 4 63 11 85 14 167 26 299 90 405 196
113 113 161 229 161 390 1 271 -143 574 -443 934 -32 39 -58 73 -58 77 0 4 23
34 51 66 203 231 365 510 418 719 29 112 31 129 31 224 1 161 -46 276 -160
390 -102 102 -212 158 -370 189 -30 6 -66 14 -80 17 -14 4 -110 8 -215 9 -181
3 -304 -7 -455 -35 -30 -6 -73 -13 -95 -16 l-40 -6 -20 59 c-61 181 -161 390
-259 538 -83 126 -239 279 -335 329 -41 21 -99 46 -130 55 -72 22 -190 24
-265 5z m218 -169 c223 -59 441 -343 597 -779 16 -44 27 -81 26 -82 -1 0 -29
-9 -62 -19 -143 -42 -365 -120 -488 -172 -76 -32 -147 -56 -167 -56 -20 0 -91
23 -165 55 -132 55 -338 129 -475 168 -41 12 -76 23 -78 25 -7 6 93 255 140
350 194 391 433 573 672 510z m-1309 -939 c30 -5 92 -14 150 -22 27 -3 116
-25 123 -29 1 -1 -11 -58 -27 -126 -30 -127 -65 -299 -75 -379 -4 -25 -8 -54
-10 -65 -2 -11 -7 -49 -11 -85 -4 -36 -9 -72 -10 -80 -1 -8 -53 -55 -116 -103
-162 -125 -338 -276 -435 -375 -53 -53 -45 -57 -157 83 -192 240 -319 483
-343 655 -6 45 -6 152 -1 180 22 112 114 223 234 284 44 22 167 54 238 62 33
3 62 8 64 10 6 6 337 -3 376 -10z m2895 -1 c82 -15 188 -48 234 -73 104 -56
192 -170 212 -272 36 -195 -61 -458 -280 -755 -49 -67 -63 -84 -138 -169 l-35
-40 -45 45 c-125 122 -313 283 -471 403 -42 33 -79 69 -82 80 -2 12 -9 62 -15
111 -18 136 -19 146 -24 164 -3 9 -8 36 -11 61 -5 40 -66 321 -81 377 -6 22
-1 25 81 39 17 2 37 7 45 9 8 2 40 7 70 11 30 3 80 10 110 14 63 9 377 5 430
-5z m-2166 -176 c98 -33 200 -70 227 -82 l49 -22 -87 -45 c-86 -43 -263 -140
-293 -160 -8 -5 -31 -19 -50 -30 -19 -11 -44 -26 -54 -33 -90 -57 -186 -117
-189 -117 -2 0 0 24 4 53 5 28 11 70 15 92 8 53 51 268 65 319 6 23 15 57 20
77 l9 36 52 -14 c29 -7 133 -40 232 -74z m1294 -69 c17 -74 34 -151 37 -170
27 -151 40 -242 36 -244 -3 -2 -31 13 -61 33 -99 66 -342 207 -475 277 -71 37
-131 68 -133 69 -9 7 425 160 480 170 14 3 37 9 50 14 15 6 25 5 29 -3 4 -6
21 -72 37 -146z m-617 -219 c210 -106 377 -203 564 -326 144 -94 162 -109 163
-135 0 -8 3 -69 8 -135 18 -266 5 -911 -19 -920 -1 -1 -42 -28 -92 -62 -129
-87 -291 -186 -432 -264 -149 -82 -367 -189 -386 -189 -22 0 -327 157 -482
248 -175 103 -157 92 -300 186 -66 44 -121 80 -122 81 -24 11 -37 661 -19 920
4 66 8 127 8 135 1 8 6 21 12 29 16 21 272 187 416 271 157 91 468 250 490
250 9 0 95 -40 191 -89z m-1292 -653 c-4 -40 -6 -218 -5 -395 l2 -322 -40 32
c-82 64 -245 207 -327 286 l-84 81 86 82 c129 125 359 319 369 313 3 -2 2 -36
-1 -77z m2291 11 c135 -112 199 -169 285 -251 l80 -78 -75 -72 c-100 -97 -159
-149 -260 -232 -47 -39 -92 -76 -101 -83 -14 -12 -15 17 -14 315 1 180 0 360
-4 400 -3 39 -4 72 -1 72 3 0 43 -32 90 -71z m-2804 -513 c109 -109 286 -260
451 -384 88 -67 88 -67 98 -157 3 -33 12 -98 20 -145 8 -47 16 -103 20 -124 3
-22 12 -71 21 -110 8 -39 17 -82 20 -96 2 -14 13 -60 24 -102 11 -43 20 -79
20 -82 0 -6 -41 -15 -140 -31 -25 -4 -53 -9 -64 -11 -140 -26 -460 -26 -585 0
-54 12 -138 39 -171 56 -101 51 -192 155 -219 249 -12 42 -17 174 -7 216 40
188 131 374 279 570 65 86 166 205 174 205 3 0 30 -24 59 -54z m3334 7 c60
-68 199 -257 242 -328 86 -143 136 -266 164 -400 11 -48 5 -165 -9 -216 -30
-101 -112 -196 -218 -249 -46 -24 -163 -57 -237 -67 -74 -10 -349 -10 -432 0
-129 16 -290 44 -290 52 0 2 15 68 34 147 34 139 78 391 91 513 4 33 9 68 11
77 3 10 59 59 125 109 124 94 328 271 414 357 28 28 53 51 57 51 3 1 25 -20
48 -46z m-2462 -681 c31 -20 66 -42 77 -48 11 -6 79 -45 150 -86 72 -41 169
-94 217 -119 63 -31 83 -46 72 -52 -51 -29 -533 -191 -542 -182 -3 3 -40 139
-47 175 -31 153 -58 302 -67 379 -3 25 -1 25 140 -67z m1626 66 c-6 -38 -43
-251 -48 -273 -14 -68 -43 -195 -57 -247 l-9 -36 -115 34 c-110 33 -401 135
-430 151 -10 6 12 21 73 53 171 87 362 198 522 303 65 43 68 44 64 15z m-704
-535 c145 -60 360 -136 478 -168 73 -21 72 -3 5 -175 -186 -474 -436 -735
-686 -717 -139 9 -294 116 -415 286 -56 79 -67 96 -136 231 -49 96 -151 348
-144 355 2 1 59 20 128 40 143 43 405 140 500 184 40 19 76 29 95 27 17 -2 95
-31 175 -63z"/>
<path d="M2506 4600 c-16 -5 -42 -22 -59 -37 -58 -55 -73 -133 -37 -203 27
-53 72 -83 135 -88 65 -5 115 17 153 66 38 50 39 141 2 195 -40 59 -126 89
-194 67z"/>
<path d="M2480 3153 c-77 -13 -242 -77 -260 -101 -3 -4 -25 -23 -49 -42 -24
-19 -64 -61 -88 -94 -85 -115 -117 -217 -117 -366 2 -339 288 -603 632 -584
301 17 545 266 556 567 4 94 -7 160 -42 249 -52 133 -164 253 -297 317 -52 25
-77 33 -145 48 -27 6 -164 10 -190 6z"/>
<path d="M862 1773 c-85 -42 -117 -153 -68 -237 108 -184 389 -34 296 158 -40
84 -145 120 -228 79z"/>
<path d="M185 2715 c-80 -43 -114 -119 -92 -207 17 -65 99 -121 170 -117 160
9 220 207 92 304 -46 35 -124 44 -170 20z"/>
<path d="M4795 2715 c-111 -60 -134 -182 -51 -273 77 -86 220 -61 276 47 17
34 16 111 -3 148 -40 77 -152 116 -222 78z"/>
</g>
</svg>
